<?xml version="1.0" standalone="no"?>
<!DOCTYPE svg PUBLIC "-//W3C//DTD SVG 20010904//EN"
 "http://www.w3.org/TR/2001/REC-SVG-20010904/DTD/svg10.dtd">
<svg version="1.0" xmlns="http://www.w3.org/2000/svg"
 width="512.000000pt" height="512.000000pt" viewBox="0 0 512.000000 512.000000"
 preserveAspectRatio="xMidYMid meet">

<g transform="translate(0.000000,512.000000) scale(0.100000,-0.100000)"
fill="#000000" stroke="none">
<path d="M377 5110 c-177 -30 -337 -194 -367 -376 -13 -80 -13 -4268 0 -4348
30 -187 189 -346 376 -376 80 -13 4268 -13 4348 0 187 30 346 189 376 376 13
80 13 4268 0 4348 -30 187 -189 346 -376 376 -72 12 -4287 11 -4357 0z m4378
-247 c47 -25 85 -64 111 -113 17 -31 19 -64 22 -297 l3 -263 -2331 0 -2331 0
3 263 c3 233 5 266 22 297 36 69 92 114 161 131 17 4 991 6 2165 6 l2135 -2
40 -22z m-3125 -2768 l0 -1866 -612 3 c-576 3 -615 4 -648 22 -49 26 -88 64
-113 111 l-22 40 -3 1765 c-1 971 0 1771 3 1777 3 10 151 13 700 13 l695 0 0
-1865z m3255 85 l0 -1775 -22 -40 c-25 -47 -64 -85 -113 -111 -34 -18 -92 -19
-1462 -22 l-1428 -2 0 1865 0 1865 1513 -2 1512 -3 0 -1775z"/>
<path d="M504 4616 c-29 -29 -34 -41 -34 -79 0 -119 160 -154 213 -46 22 46
14 91 -25 130 -24 23 -38 29 -75 29 -38 0 -50 -5 -79 -34z"/>
<path d="M972 4622 c-38 -35 -48 -79 -28 -125 36 -87 160 -96 202 -15 25 49
18 96 -20 134 -29 29 -41 34 -79 34 -35 0 -51 -6 -75 -28z"/>
<path d="M1434 4616 c-26 -26 -34 -42 -34 -70 0 -131 167 -168 217 -48 31 75
-22 152 -107 152 -34 0 -48 -6 -76 -34z"/>
<path d="M553 3253 c-13 -2 -36 -18 -53 -34 -24 -25 -30 -39 -30 -76 0 -38 5
-50 34 -79 l34 -34 386 0 c407 0 422 1 451 47 21 32 21 97 0 129 -34 52 -54
54 -442 53 -197 -1 -368 -4 -380 -6z"/>
<path d="M535 2546 c-42 -18 -65 -57 -65 -107 0 -33 6 -47 34 -75 l34 -34 391
0 391 0 30 28 c60 53 55 136 -9 179 -34 23 -35 23 -405 23 -286 -1 -378 -4
-401 -14z"/>
<path d="M534 1850 c-60 -24 -85 -121 -44 -172 37 -48 51 -49 458 -46 l382 3
25 25 c50 50 49 124 -1 171 l-26 24 -386 2 c-213 1 -397 -2 -408 -7z"/>
<path d="M504 1126 c-28 -28 -34 -42 -34 -75 0 -23 8 -53 17 -68 32 -48 62
-53 329 -53 271 0 301 5 329 61 26 49 19 97 -19 135 l-34 34 -277 0 -277 0
-34 -34z"/>
</g>
</svg>
